<svg width="8" height="14" viewBox="0 0 8 14" fill="none" xmlns="http://www.w3.org/2000/svg">
<path d="M0.321927 8.0542L5.98193 13.7042C6.07489 13.7979 6.18549 13.8723 6.30735 13.9231C6.42921 13.9739 6.55991 14 6.69193 14C6.82394 14 6.95464 13.9739 7.0765 13.9231C7.19836 13.8723 7.30896 13.7979 7.40193 13.7042C7.58818 13.5168 7.69272 13.2634 7.69272 12.9992C7.69272 12.735 7.58818 12.4816 7.40193 12.2942L2.45193 7.2942L7.40193 2.3442C7.58818 2.15684 7.69272 1.90339 7.69272 1.6392C7.69272 1.37502 7.58818 1.12156 7.40193 0.934202C7.30931 0.839714 7.19887 0.764543 7.07699 0.713047C6.95512 0.66155 6.82423 0.634752 6.69193 0.634203C6.55962 0.634752 6.42874 0.66155 6.30686 0.713047C6.18499 0.764543 6.07454 0.839714 5.98193 0.934202L0.321927 6.5842C0.220422 6.67784 0.139414 6.79149 0.084006 6.91799C0.0285984 7.04449 -6.07959e-06 7.1811 -6.09167e-06 7.3192C-6.10374e-06 7.4573 0.0285984 7.59391 0.0840059 7.72041C0.139413 7.84691 0.220422 7.96056 0.321927 8.0542Z" fill="#0B6352"/>
</svg>
